Griffith_Gothic-Condensed_Ultra.ufo
<glyph name="exclam" format="1">
  <advance width="254"/>
  <unicode hex="0021"/>
  <outline>
    <contour>
      <point x="234" y="720" type="line"/>
      <point x="177" y="233" type="line"/>
      <point x="77" y="233" type="line"/>
      <point x="20" y="720" type="line"/>
    </contour>
    <contour>
      <point x="222" y="88" type="curve" smooth="yes"/>
      <point x="222" y="34"/>
      <point x="181" y="-7"/>
      <point x="127" y="-7" type="curve" smooth="yes"/>
      <point x="73" y="-7"/>
      <point x="32" y="34"/>
      <point x="32" y="88" type="curve" smooth="yes"/>
      <point x="32" y="142"/>
      <point x="73" y="183"/>
      <point x="127" y="183" type="curve" smooth="yes"/>
      <point x="181" y="183"/>
      <point x="222" y="142"/>
    </contour>
  </outline>
</glyph>
<glyph name="quotedbl" format="1">
  <advance width="408"/>
  <unicode hex="0022"/>
  <outline>
    <contour>
      <point x="390" y="720" type="line"/>
      <point x="347" y="399" type="line"/>
      <point x="262" y="399" type="line"/>
      <point x="219" y="720" type="line"/>
    </contour>
    <contour>
      <point x="188" y="720" type="line"/>
      <point x="146" y="399" type="line"/>
      <point x="60" y="399" type="line"/>
      <point x="18" y="720" type="line"/>
    </contour>
  </outline>
</glyph>
<glyph name="numbersign" format="1">
  <advance width="538"/>
  <unicode hex="0023"/>
  <outline>
    <contour>
      <point x="523" y="430" type="line"/>
      <point x="420" y="430" type="line"/>
      <point x="402" y="300" type="line"/>
      <point x="495" y="300" type="line"/>
      <point x="495" y="135" type="line"/>
      <point x="379" y="135" type="line"/>
      <point x="361" y="0" type="line"/>
      <point x="288" y="0" type="line"/>
      <point x="306" y="135" type="line"/>
      <point x="178" y="135" type="line"/>
      <point x="160" y="0" type="line"/>
      <point x="86" y="0" type="line"/>
      <point x="105" y="135" type="line"/>
      <point x="23" y="135" type="line"/>
      <point x="23" y="300" type="line"/>
      <point x="127" y="300" type="line"/>
      <point x="145" y="430" type="line"/>
      <point x="51" y="430" type="line"/>
      <point x="51" y="595" type="line"/>
      <point x="168" y="595" type="line"/>
      <point x="185" y="720" type="line"/>
      <point x="258" y="720" type="line"/>
      <point x="241" y="595" type="line"/>
      <point x="369" y="595" type="line"/>
      <point x="386" y="720" type="line"/>
      <point x="460" y="720" type="line"/>
      <point x="443" y="595" type="line"/>
      <point x="523" y="595" type="line"/>
    </contour>
    <contour>
      <point x="350" y="433" type="line"/>
      <point x="216" y="433" type="line"/>
      <point x="197" y="297" type="line"/>
      <point x="332" y="297" type="line"/>
    </contour>
  </outline>
</glyph>
<glyph name="dollar" format="1">
  <advance width="486"/>
  <unicode hex="0024"/>
  <outline>
    <contour>
      <point x="478" y="210" type="curve" smooth="yes"/>
      <point x="478" y="88"/>
      <point x="401" y="14"/>
      <point x="290" y="0" type="curve"/>
      <point x="290" y="-95" type="line"/>
      <point x="202" y="-95" type="line"/>
      <point x="202" y="-1" type="line"/>
      <point x="134" y="10"/>
      <point x="58" y="40"/>
      <point x="3" y="117" type="curve"/>
      <point x="110" y="223" type="line"/>
      <point x="143" y="179"/>
      <point x="182" y="154"/>
      <point x="215" y="144" type="curve"/>
      <point x="215" y="286" type="line"/>
      <point x="122" y="326"/>
      <point x="15" y="376"/>
      <point x="15" y="515" type="curve" smooth="yes"/>
      <point x="15" y="627"/>
      <point x="82" y="710"/>
      <point x="202" y="724" type="curve"/>
      <point x="202" y="762" type="line"/>
      <point x="288" y="762" type="line"/>
      <point x="288" y="723" type="line"/>
      <point x="366" y="711"/>
      <point x="423" y="678"/>
      <point x="468" y="615" type="curve"/>
      <point x="356" y="512" type="line"/>
      <point x="327" y="548"/>
      <point x="301" y="567"/>
      <point x="276" y="576" type="curve"/>
      <point x="276" y="429" type="line"/>
      <point x="411" y="374"/>
      <point x="478" y="314"/>
    </contour>
    <contour>
      <point x="215" y="455" type="curve"/>
      <point x="215" y="584" type="line"/>
      <point x="188" y="579"/>
      <point x="170" y="557"/>
      <point x="170" y="528" type="curve" smooth="yes"/>
      <point x="170" y="499"/>
      <point x="182" y="472"/>
    </contour>
    <contour>
      <point x="314" y="191" type="curve" smooth="yes"/>
      <point x="314" y="223"/>
      <point x="304" y="241"/>
      <point x="276" y="259" type="curve"/>
      <point x="276" y="140" type="line"/>
      <point x="298" y="147"/>
      <point x="314" y="160"/>
    </contour>
  </outline>
</glyph>
<glyph name="percent" format="1">
  <advance width="770"/>
  <unicode hex="0025"/>
  <outline>
    <contour>
      <point x="357" y="503" type="curve" smooth="yes"/>
      <point x="357" y="348"/>
      <point x="284" y="280"/>
      <point x="183" y="280" type="curve" smooth="yes"/>
      <point x="81" y="280"/>
      <point x="13" y="344"/>
      <point x="13" y="503" type="curve" smooth="yes"/>
      <point x="13" y="662"/>
      <point x="83" y="727"/>
      <point x="184" y="727" type="curve" smooth="yes"/>
      <point x="286" y="727"/>
      <point x="357" y="666"/>
    </contour>
    <contour>
      <point x="221" y="502" type="curve" smooth="yes"/>
      <point x="221" y="574"/>
      <point x="215" y="603"/>
      <point x="183" y="603" type="curve" smooth="yes"/>
      <point x="152" y="603"/>
      <point x="149" y="573"/>
      <point x="149" y="504" type="curve" smooth="yes"/>
      <point x="149" y="436"/>
      <point x="152" y="401"/>
      <point x="183" y="401" type="curve" smooth="yes"/>
      <point x="215" y="401"/>
      <point x="221" y="434"/>
    </contour>
    <contour>
      <point x="645" y="719" type="line"/>
      <point x="416" y="344" type="line"/>
      <point x="272" y="3" type="line"/>
      <point x="125" y="3" type="line"/>
      <point x="354" y="379" type="line"/>
      <point x="499" y="720" type="line"/>
    </contour>
    <contour>
      <point x="757" y="220" type="curve" smooth="yes"/>
      <point x="757" y="61"/>
      <point x="684" y="-7"/>
      <point x="583" y="-7" type="curve" smooth="yes"/>
      <point x="481" y="-7"/>
      <point x="413" y="57"/>
      <point x="413" y="220" type="curve" smooth="yes"/>
      <point x="413" y="375"/>
      <point x="483" y="440"/>
      <point x="584" y="440" type="curve" smooth="yes"/>
      <point x="686" y="440"/>
      <point x="757" y="379"/>
    </contour>
    <contour>
      <point x="621" y="219" type="curve" smooth="yes"/>
      <point x="621" y="290"/>
      <point x="615" y="319"/>
      <point x="583" y="319" type="curve" smooth="yes"/>
      <point x="552" y="319"/>
      <point x="549" y="289"/>
      <point x="549" y="221" type="curve" smooth="yes"/>
      <point x="549" y="152"/>
      <point x="552" y="117"/>
      <point x="583" y="117" type="curve" smooth="yes"/>
      <point x="615" y="117"/>
      <point x="621" y="150"/>
    </contour>
  </outline>
</glyph>
<glyph name="ampersand" format="1">
  <advance width="596"/>
  <unicode hex="0026"/>
  <outline>
    <contour>
      <point x="586" y="1" type="line"/>
      <point x="563" y="-4"/>
      <point x="547" y="-7"/>
      <point x="524" y="-7" type="curve" smooth="yes"/>
      <point x="467" y="-7"/>
      <point x="426" y="3"/>
      <point x="379" y="45" type="curve"/>
      <point x="331" y="8"/>
      <point x="280" y="-10"/>
      <point x="224" y="-10" type="curve" smooth="yes"/>
      <point x="88" y="-10"/>
      <point x="8" y="59"/>
      <point x="8" y="190" type="curve" smooth="yes"/>
      <point x="8" y="281"/>
      <point x="45" y="342"/>
      <point x="128" y="401" type="curve"/>
      <point x="93" y="464"/>
      <point x="80" y="507"/>
      <point x="80" y="567" type="curve" smooth="yes"/>
      <point x="80" y="665"/>
      <point x="143" y="732"/>
      <point x="259" y="732" type="curve" smooth="yes"/>
      <point x="366" y="732"/>
      <point x="417" y="662"/>
      <point x="417" y="585" type="curve" smooth="yes"/>
      <point x="417" y="502"/>
      <point x="380" y="449"/>
      <point x="311" y="397" type="curve"/>
      <point x="341" y="351"/>
      <point x="367" y="313"/>
      <point x="391" y="278" type="curve"/>
      <point x="410" y="324"/>
      <point x="430" y="380"/>
      <point x="451" y="448" type="curve"/>
      <point x="581" y="386" type="line"/>
      <point x="550" y="294"/>
      <point x="516" y="220"/>
      <point x="479" y="161" type="curve"/>
      <point x="503" y="135"/>
      <point x="521" y="126"/>
      <point x="539" y="126" type="curve" smooth="yes"/>
      <point x="559" y="126"/>
      <point x="569" y="128"/>
      <point x="586" y="133" type="curve"/>
    </contour>
    <contour>
      <point x="285" y="569" type="curve" smooth="yes"/>
      <point x="285" y="607"/>
      <point x="272" y="629"/>
      <point x="254" y="629" type="curve" smooth="yes"/>
      <point x="233" y="629"/>
      <point x="220" y="613"/>
      <point x="220" y="575" type="curve" smooth="yes"/>
      <point x="220" y="547"/>
      <point x="223" y="524"/>
      <point x="248" y="477" type="curve"/>
      <point x="278" y="511"/>
      <point x="285" y="541"/>
    </contour>
    <contour>
      <point x="298" y="141" type="curve"/>
      <point x="268" y="182"/>
      <point x="232" y="233"/>
      <point x="192" y="296" type="curve"/>
      <point x="181" y="274"/>
      <point x="176" y="251"/>
      <point x="176" y="226" type="curve" smooth="yes"/>
      <point x="176" y="170"/>
      <point x="202" y="129"/>
      <point x="260" y="129" type="curve" smooth="yes"/>
      <point x="273" y="129"/>
      <point x="286" y="133"/>
    </contour>
  </outline>
</glyph>
<glyph name="quotesingle" format="1">
  <advance width="210"/>
  <unicode hex="0027"/>
  <outline>
    <contour>
      <point x="192" y="720" type="line"/>
      <point x="150" y="399" type="line"/>
      <point x="60" y="399" type="line"/>
      <point x="18" y="720" type="line"/>
    </contour>
  </outline>
</glyph>
<glyph name="parenright" format="1">
  <advance width="335"/>
  <unicode hex="0029"/>
  <outline>
    <contour>
      <point x="311" y="320" type="curve" smooth="yes"/>
      <point x="311" y="136"/>
      <point x="238" y="4"/>
      <point x="148" y="-95" type="curve"/>
      <point x="3" y="-95" type="line"/>
      <point x="102" y="46"/>
      <point x="136" y="177"/>
      <point x="136" y="320" type="curve" smooth="yes"/>
      <point x="136" y="463"/>
      <point x="102" y="594"/>
      <point x="3" y="735" type="curve"/>
      <point x="148" y="735" type="line"/>
      <point x="238" y="636"/>
      <point x="311" y="504"/>
    </contour>
  </outline>
</glyph>
<glyph name="hyphen" format="1">
  <advance width="290"/>
  <unicode hex="002D"/>
  <unicode hex="2010"/>
  <unicode hex="2011"/>
  <outline>
    <contour>
      <point x="266" y="216" type="line"/>
      <point x="24" y="216" type="line"/>
      <point x="24" y="370" type="line"/>
      <point x="266" y="370" type="line"/>
    </contour>
  </outline>
</glyph>
<glyph name="period" format="1">
  <advance width="238"/>
  <unicode hex="002E"/>
  <outline>
    <contour>
      <point x="214" y="88" type="curve" smooth="yes"/>
      <point x="214" y="34"/>
      <point x="173" y="-7"/>
      <point x="119" y="-7" type="curve" smooth="yes"/>
      <point x="65" y="-7"/>
      <point x="24" y="34"/>
      <point x="24" y="88" type="curve" smooth="yes"/>
      <point x="24" y="142"/>
      <point x="65" y="183"/>
      <point x="119" y="183" type="curve" smooth="yes"/>
      <point x="173" y="183"/>
      <point x="214" y="142"/>
    </contour>
  </outline>
</glyph>
<glyph name="zero" format="1">
  <advance width="509"/>
  <unicode hex="0030"/>
  <outline>
    <contour>
      <point x="491" y="276" type="line" smooth="yes"/>
      <point x="491" y="71"/>
      <point x="395" y="-12"/>
      <point x="254" y="-12" type="curve" smooth="yes"/>
      <point x="113" y="-12"/>
      <point x="18" y="71"/>
      <point x="18" y="276" type="curve" smooth="yes"/>
      <point x="18" y="444" type="line" smooth="yes"/>
      <point x="18" y="649"/>
      <point x="113" y="732"/>
      <point x="254" y="732" type="curve" smooth="yes"/>
      <point x="395" y="732"/>
      <point x="491" y="649"/>
      <point x="491" y="444" type="curve" smooth="yes"/>
    </contour>
    <contour>
      <point x="302" y="256" type="curve" smooth="yes"/>
      <point x="302" y="464" type="line" smooth="yes"/>
      <point x="302" y="548"/>
      <point x="294" y="587"/>
      <point x="254" y="587" type="curve" smooth="yes"/>
      <point x="215" y="587"/>
      <point x="206" y="548"/>
      <point x="206" y="464" type="curve" smooth="yes"/>
      <point x="206" y="256" type="line" smooth="yes"/>
      <point x="206" y="172"/>
      <point x="215" y="134"/>
      <point x="254" y="134" type="curve" smooth="yes"/>
      <point x="294" y="134"/>
      <point x="302" y="172"/>
    </contour>
  </outline>
</glyph>
<glyph name="three" format="1">
  <advance width="458"/>
  <unicode hex="0033"/>
  <outline>
    <contour>
      <point x="447" y="245" type="curve" smooth="yes"/>
      <point x="447" y="91"/>
      <point x="308" y="-5"/>
      <point x="7" y="-3" type="curve"/>
      <point x="7" y="145" type="line"/>
      <point x="206" y="150"/>
      <point x="256" y="192"/>
      <point x="256" y="248" type="curve" smooth="yes"/>
      <point x="256" y="289"/>
      <point x="236" y="307"/>
      <point x="201" y="307" type="curve" smooth="yes"/>
      <point x="180" y="307"/>
      <point x="155" y="301"/>
      <point x="130" y="291" type="curve"/>
      <point x="86" y="416" type="line"/>
      <point x="190" y="457"/>
      <point x="234" y="498"/>
      <point x="234" y="538" type="curve" smooth="yes"/>
      <point x="234" y="573"/>
      <point x="218" y="585"/>
      <point x="195" y="585" type="curve" smooth="yes"/>
      <point x="165" y="585"/>
      <point x="138" y="561"/>
      <point x="110" y="511" type="curve"/>
      <point x="10" y="604" type="line"/>
      <point x="49" y="679"/>
      <point x="118" y="735"/>
      <point x="228" y="735" type="curve" smooth="yes"/>
      <point x="349" y="735"/>
      <point x="414" y="681"/>
      <point x="414" y="585" type="curve" smooth="yes"/>
      <point x="414" y="496"/>
      <point x="358" y="441"/>
      <point x="297" y="408" type="curve"/>
      <point x="297" y="405" type="line"/>
      <point x="385" y="400"/>
      <point x="447" y="341"/>
    </contour>
  </outline>
</glyph>
<glyph name="six" format="1">
  <advance width="508"/>
  <unicode hex="0036"/>
  <outline>
    <contour>
      <point x="493" y="249" type="curve" smooth="yes"/>
      <point x="493" y="74"/>
      <point x="406" y="-12"/>
      <point x="251" y="-12" type="curve" smooth="yes"/>
      <point x="99" y="-12"/>
      <point x="17" y="74"/>
      <point x="17" y="268" type="curve" smooth="yes"/>
      <point x="17" y="462"/>
      <point x="96" y="595"/>
      <point x="214" y="720" type="curve"/>
      <point x="449" y="720" type="line"/>
      <point x="320" y="617"/>
      <point x="236" y="509"/>
      <point x="208" y="432" type="curve"/>
      <point x="211" y="432" type="line"/>
      <point x="226" y="450"/>
      <point x="259" y="481"/>
      <point x="316" y="481" type="curve" smooth="yes"/>
      <point x="416" y="481"/>
      <point x="493" y="410"/>
    </contour>
    <contour>
      <point x="306" y="236" type="curve" smooth="yes"/>
      <point x="306" y="300"/>
      <point x="303" y="348"/>
      <point x="255" y="348" type="curve" smooth="yes"/>
      <point x="207" y="348"/>
      <point x="205" y="299"/>
      <point x="205" y="236" type="curve" smooth="yes"/>
      <point x="205" y="169"/>
      <point x="207" y="122"/>
      <point x="255" y="122" type="curve" smooth="yes"/>
      <point x="303" y="122"/>
      <point x="306" y="171"/>
    </contour>
  </outline>
</glyph>
<glyph name="seven" format="1">
  <advance width="479"/>
  <unicode hex="0037"/>
  <outline>
    <contour>
      <point x="462" y="612" type="line"/>
      <point x="364" y="442"/>
      <point x="287" y="219"/>
      <point x="251" y="0" type="curve"/>
      <point x="60" y="0" type="line"/>
      <point x="96" y="198"/>
      <point x="174" y="411"/>
      <point x="272" y="560" type="curve"/>
      <point x="15" y="560" type="line"/>
      <point x="15" y="720" type="line"/>
      <point x="462" y="720" type="line"/>
    </contour>
  </outline>
</glyph>
<glyph name="eight" format="1">
  <advance width="488"/>
  <unicode hex="0038"/>
  <outline>
    <contour>
      <point x="479" y="204" type="curve" smooth="yes"/>
      <point x="479" y="59"/>
      <point x="373" y="-12"/>
      <point x="243" y="-12" type="curve" smooth="yes"/>
      <point x="113" y="-12"/>
      <point x="9" y="58"/>
      <point x="9" y="203" type="curve" smooth="yes"/>
      <point x="9" y="316"/>
      <point x="69" y="367"/>
      <point x="110" y="382" type="curve"/>
      <point x="110" y="385" type="line"/>
      <point x="74" y="402"/>
      <point x="25" y="443"/>
      <point x="25" y="536" type="curve" smooth="yes"/>
      <point x="25" y="657"/>
      <point x="113" y="732"/>
      <point x="243" y="732" type="curve" smooth="yes"/>
      <point x="374" y="732"/>
      <point x="463" y="659"/>
      <point x="463" y="538" type="curve" smooth="yes"/>
      <point x="463" y="447"/>
      <point x="411" y="402"/>
      <point x="376" y="385" type="curve"/>
      <point x="376" y="383" type="line"/>
      <point x="419" y="366"/>
      <point x="479" y="315"/>
    </contour>
    <contour>
      <point x="287" y="519" type="curve" smooth="yes"/>
      <point x="287" y="581"/>
      <point x="279" y="603"/>
      <point x="243" y="603" type="curve" smooth="yes"/>
      <point x="207" y="603"/>
      <point x="201" y="575"/>
      <point x="201" y="520" type="curve" smooth="yes"/>
      <point x="201" y="465"/>
      <point x="207" y="437"/>
      <point x="243" y="437" type="curve" smooth="yes"/>
      <point x="279" y="437"/>
      <point x="287" y="457"/>
    </contour>
    <contour>
      <point x="294" y="218" type="curve" smooth="yes"/>
      <point x="294" y="285"/>
      <point x="283" y="321"/>
      <point x="242" y="321" type="curve" smooth="yes"/>
      <point x="201" y="321"/>
      <point x="192" y="286"/>
      <point x="192" y="220" type="curve" smooth="yes"/>
      <point x="192" y="154"/>
      <point x="199" y="117"/>
      <point x="242" y="117" type="curve" smooth="yes"/>
      <point x="283" y="117"/>
      <point x="294" y="152"/>
    </contour>
  </outline>
</glyph>
<glyph name="nine" format="1">
  <advance width="508"/>
  <unicode hex="0039"/>
  <outline>
    <contour>
      <point x="491" y="452" type="curve" smooth="yes"/>
      <point x="491" y="258"/>
      <point x="412" y="125"/>
      <point x="294" y="0" type="curve"/>
      <point x="59" y="0" type="line"/>
      <point x="188" y="103"/>
      <point x="272" y="211"/>
      <point x="300" y="288" type="curve"/>
      <point x="297" y="288" type="line"/>
      <point x="282" y="270"/>
      <point x="249" y="239"/>
      <point x="192" y="239" type="curve" smooth="yes"/>
      <point x="92" y="239"/>
      <point x="15" y="310"/>
      <point x="15" y="471" type="curve" smooth="yes"/>
      <point x="15" y="646"/>
      <point x="102" y="732"/>
      <point x="257" y="732" type="curve" smooth="yes"/>
      <point x="409" y="732"/>
      <point x="491" y="646"/>
    </contour>
    <contour>
      <point x="303" y="484" type="curve" smooth="yes"/>
      <point x="303" y="551"/>
      <point x="301" y="598"/>
      <point x="253" y="598" type="curve" smooth="yes"/>
      <point x="205" y="598"/>
      <point x="202" y="549"/>
      <point x="202" y="484" type="curve" smooth="yes"/>
      <point x="202" y="420"/>
      <point x="205" y="372"/>
      <point x="253" y="372" type="curve" smooth="yes"/>
      <point x="301" y="372"/>
      <point x="303" y="421"/>
    </contour>
  </outline>
</glyph>
<glyph name="colon" format="1">
  <advance width="248"/>
  <unicode hex="003A"/>
  <outline>
    <contour>
      <point x="219" y="454" type="curve" smooth="yes"/>
      <point x="219" y="400"/>
      <point x="178" y="359"/>
      <point x="124" y="359" type="curve" smooth="yes"/>
      <point x="70" y="359"/>
      <point x="29" y="400"/>
      <point x="29" y="454" type="curve" smooth="yes"/>
      <point x="29" y="508"/>
      <point x="70" y="549"/>
      <point x="124" y="549" type="curve" smooth="yes"/>
      <point x="178" y="549"/>
      <point x="219" y="508"/>
    </contour>
    <contour>
      <point x="219" y="88" type="curve" smooth="yes"/>
      <point x="219" y="34"/>
      <point x="178" y="-7"/>
      <point x="124" y="-7" type="curve" smooth="yes"/>
      <point x="70" y="-7"/>
      <point x="29" y="34"/>
      <point x="29" y="88" type="curve" smooth="yes"/>
      <point x="29" y="142"/>
      <point x="70" y="183"/>
      <point x="124" y="183" type="curve" smooth="yes"/>
      <point x="178" y="183"/>
      <point x="219" y="142"/>
    </contour>
  </outline>
</glyph>
<glyph name="equal" format="1">
  <advance width="473"/>
  <unicode hex="003D"/>
  <outline>
    <contour>
      <point x="439" y="426" type="line"/>
      <point x="34" y="426" type="line"/>
      <point x="34" y="569" type="line"/>
      <point x="439" y="569" type="line"/>
    </contour>
    <contour>
      <point x="439" y="166" type="line"/>
      <point x="34" y="166" type="line"/>
      <point x="34" y="309" type="line"/>
      <point x="439" y="309" type="line"/>
    </contour>
  </outline>
</glyph>
<glyph name="D" format="1">
  <advance width="522"/>
  <unicode hex="0044"/>
  <outline>
    <contour>
      <point x="504" y="302" type="line" smooth="yes"/>
      <point x="504" y="93"/>
      <point x="405" y="0"/>
      <point x="262" y="0" type="curve" smooth="yes"/>
      <point x="27" y="0" type="line"/>
      <point x="27" y="720" type="line"/>
      <point x="262" y="720" type="line" smooth="yes"/>
      <point x="405" y="720"/>
      <point x="504" y="627"/>
      <point x="504" y="418" type="curve" smooth="yes"/>
    </contour>
    <contour>
      <point x="308" y="253" type="curve" smooth="yes"/>
      <point x="308" y="467" type="line" smooth="yes"/>
      <point x="308" y="545"/>
      <point x="290" y="578"/>
      <point x="247" y="578" type="curve" smooth="yes"/>
      <point x="223" y="578" type="line"/>
      <point x="223" y="142" type="line"/>
      <point x="247" y="142" type="line" smooth="yes"/>
      <point x="290" y="142"/>
      <point x="308" y="175"/>
    </contour>
  </outline>
</glyph>
<glyph name="E" format="1">
  <advance width="437"/>
  <unicode hex="0045"/>
  <outline>
    <contour>
      <point x="421" y="0" type="line"/>
      <point x="27" y="0" type="line"/>
      <point x="27" y="720" type="line"/>
      <point x="413" y="720" type="line"/>
      <point x="413" y="564" type="line"/>
      <point x="218" y="564" type="line"/>
      <point x="218" y="444" type="line"/>
      <point x="349" y="444" type="line"/>
      <point x="349" y="296" type="line"/>
      <point x="218" y="296" type="line"/>
      <point x="218" y="156" type="line"/>
      <point x="421" y="156" type="line"/>
    </contour>
  </outline>
</glyph>
<glyph name="F" format="1">
  <advance width="419"/>
  <unicode hex="0046"/>
  <outline>
    <contour>
      <point x="404" y="562" type="line"/>
      <point x="220" y="562" type="line"/>
      <point x="220" y="423" type="line"/>
      <point x="349" y="423" type="line"/>
      <point x="349" y="271" type="line"/>
      <point x="220" y="271" type="line"/>
      <point x="220" y="0" type="line"/>
      <point x="27" y="0" type="line"/>
      <point x="27" y="720" type="line"/>
      <point x="404" y="720" type="line"/>
    </contour>
  </outline>
</glyph>
<glyph name="G" format="1">
  <advance width="524"/>
  <unicode hex="0047"/>
  <outline>
    <contour>
      <point x="499" y="-1" type="line"/>
      <point x="439" y="-1" type="line"/>
      <point x="414" y="108" type="line"/>
      <point x="411" y="108" type="line"/>
      <point x="383" y="43"/>
      <point x="332" y="-12"/>
      <point x="239" y="-12" type="curve" smooth="yes"/>
      <point x="107" y="-12"/>
      <point x="20" y="90"/>
      <point x="20" y="295" type="curve" smooth="yes"/>
      <point x="20" y="427" type="line" smooth="yes"/>
      <point x="20" y="640"/>
      <point x="120" y="732"/>
      <point x="261" y="732" type="curve" smooth="yes"/>
      <point x="418" y="732"/>
      <point x="478" y="635"/>
      <point x="490" y="479" type="curve"/>
      <point x="307" y="438" type="line"/>
      <point x="304" y="552"/>
      <point x="293" y="585"/>
      <point x="261" y="585" type="curve" smooth="yes"/>
      <point x="225" y="585"/>
      <point x="216" y="538"/>
      <point x="216" y="453" type="curve" smooth="yes"/>
      <point x="216" y="270" type="line" smooth="yes"/>
      <point x="216" y="174"/>
      <point x="230" y="135"/>
      <point x="265" y="135" type="curve" smooth="yes"/>
      <point x="300" y="135"/>
      <point x="318" y="166"/>
      <point x="318" y="284" type="curve"/>
      <point x="266" y="284" type="line"/>
      <point x="266" y="348" type="line"/>
      <point x="499" y="348" type="line"/>
    </contour>
  </outline>
</glyph>
<glyph name="K" format="1">
  <advance width="552"/>
  <unicode hex="004B"/>
  <outline>
    <contour>
      <point x="555" y="0" type="line"/>
      <point x="342" y="0" type="line"/>
      <point x="229" y="379" type="line"/>
      <point x="229" y="381" type="line"/>
      <point x="340" y="720" type="line"/>
      <point x="544" y="720" type="line"/>
      <point x="420" y="390" type="line"/>
    </contour>
    <contour>
      <point x="223" y="0" type="line"/>
      <point x="27" y="0" type="line"/>
      <point x="27" y="720" type="line"/>
      <point x="223" y="720" type="line"/>
    </contour>
  </outline>
</glyph>
<glyph name="O" format="1">
  <advance width="528"/>
  <unicode hex="004F"/>
  <outline>
    <contour>
      <point x="508" y="293" type="line" smooth="yes"/>
      <point x="508" y="80"/>
      <point x="407" y="-12"/>
      <point x="264" y="-12" type="curve" smooth="yes"/>
      <point x="121" y="-12"/>
      <point x="20" y="80"/>
      <point x="20" y="293" type="curve" smooth="yes"/>
      <point x="20" y="427" type="line" smooth="yes"/>
      <point x="20" y="640"/>
      <point x="121" y="732"/>
      <point x="264" y="732" type="curve" smooth="yes"/>
      <point x="407" y="732"/>
      <point x="508" y="640"/>
      <point x="508" y="427" type="curve" smooth="yes"/>
    </contour>
    <contour>
      <point x="312" y="241" type="curve" smooth="yes"/>
      <point x="312" y="479" type="line" smooth="yes"/>
      <point x="312" y="551"/>
      <point x="301" y="590"/>
      <point x="264" y="590" type="curve" smooth="yes"/>
      <point x="227" y="590"/>
      <point x="216" y="551"/>
      <point x="216" y="479" type="curve" smooth="yes"/>
      <point x="216" y="241" type="line" smooth="yes"/>
      <point x="216" y="169"/>
      <point x="227" y="130"/>
      <point x="264" y="130" type="curve" smooth="yes"/>
      <point x="301" y="130"/>
      <point x="312" y="169"/>
    </contour>
  </outline>
</glyph>
<glyph name="P" format="1">
  <advance width="484"/>
  <unicode hex="0050"/>
  <outline>
    <contour>
      <point x="479" y="491" type="curve" smooth="yes"/>
      <point x="479" y="326"/>
      <point x="385" y="245"/>
      <point x="232" y="245" type="curve" smooth="yes"/>
      <point x="219" y="245" type="line"/>
      <point x="219" y="0" type="line"/>
      <point x="28" y="0" type="line"/>
      <point x="28" y="720" type="line"/>
      <point x="230" y="720" type="line" smooth="yes"/>
      <point x="384" y="720"/>
      <point x="479" y="647"/>
    </contour>
    <contour>
      <point x="294" y="487" type="curve" smooth="yes"/>
      <point x="294" y="547"/>
      <point x="273" y="578"/>
      <point x="229" y="578" type="curve" smooth="yes"/>
      <point x="219" y="578" type="line"/>
      <point x="219" y="390" type="line"/>
      <point x="229" y="390" type="line" smooth="yes"/>
      <point x="275" y="390"/>
      <point x="294" y="426"/>
    </contour>
  </outline>
</glyph>
<glyph name="Q" format="1">
  <advance width="528"/>
  <unicode hex="0051"/>
  <outline>
    <contour>
      <point x="536" y="-124" type="line"/>
      <point x="525" y="-127"/>
      <point x="511" y="-129"/>
      <point x="493" y="-129" type="curve" smooth="yes"/>
      <point x="435" y="-129"/>
      <point x="400" y="-109"/>
      <point x="370" y="-51" type="curve" smooth="yes"/>
      <point x="344" y="-1" type="line"/>
      <point x="319" y="-8"/>
      <point x="292" y="-12"/>
      <point x="264" y="-12" type="curve" smooth="yes"/>
      <point x="121" y="-12"/>
      <point x="20" y="80"/>
      <point x="20" y="293" type="curve" smooth="yes"/>
      <point x="20" y="427" type="line" smooth="yes"/>
      <point x="20" y="640"/>
      <point x="121" y="732"/>
      <point x="264" y="732" type="curve" smooth="yes"/>
      <point x="407" y="732"/>
      <point x="508" y="640"/>
      <point x="508" y="427" type="curve" smooth="yes"/>
      <point x="508" y="293" type="line" smooth="yes"/>
      <point x="508" y="177"/>
      <point x="478" y="98"/>
      <point x="428" y="48" type="curve"/>
      <point x="455" y="10" type="line" smooth="yes"/>
      <point x="472" y="-14"/>
      <point x="484" y="-23"/>
      <point x="506" y="-23" type="curve" smooth="yes"/>
      <point x="514" y="-23"/>
      <point x="525" y="-21"/>
      <point x="536" y="-18" type="curve"/>
    </contour>
    <contour>
      <point x="320" y="202" type="line"/>
      <point x="320" y="475" type="line" smooth="yes"/>
      <point x="320" y="550"/>
      <point x="307" y="590"/>
      <point x="268" y="590" type="curve" smooth="yes"/>
      <point x="229" y="590"/>
      <point x="216" y="550"/>
      <point x="216" y="475" type="curve" smooth="yes"/>
      <point x="216" y="237" type="line" smooth="yes"/>
      <point x="216" y="162"/>
      <point x="229" y="122"/>
      <point x="268" y="122" type="curve" smooth="yes"/>
      <point x="276" y="122"/>
      <point x="283" y="124"/>
      <point x="289" y="127" type="curve"/>
      <point x="233" y="234" type="line"/>
      <point x="283" y="264" type="line"/>
      <point x="320" y="199" type="line"/>
    </contour>
  </outline>
</glyph>
<glyph name="R" format="1">
  <advance width="501"/>
  <unicode hex="0052"/>
  <outline>
    <contour>
      <point x="501" y="0" type="line"/>
      <point x="305" y="0" type="line"/>
      <point x="232" y="252" type="line"/>
      <point x="218" y="252" type="line"/>
      <point x="218" y="0" type="line"/>
      <point x="27" y="0" type="line"/>
      <point x="27" y="720" type="line"/>
      <point x="240" y="720" type="line" smooth="yes"/>
      <point x="387" y="720"/>
      <point x="479" y="648"/>
      <point x="479" y="496" type="curve" smooth="yes"/>
      <point x="479" y="413"/>
      <point x="447" y="353"/>
      <point x="394" y="319" type="curve"/>
    </contour>
    <contour>
      <point x="292" y="483" type="curve" smooth="yes"/>
      <point x="292" y="544"/>
      <point x="271" y="578"/>
      <point x="227" y="578" type="curve" smooth="yes"/>
      <point x="218" y="578" type="line"/>
      <point x="218" y="383" type="line"/>
      <point x="227" y="383" type="line" smooth="yes"/>
      <point x="273" y="383"/>
      <point x="292" y="423"/>
    </contour>
  </outline>
</glyph>
<glyph name="S" format="1">
  <advance width="493"/>
  <unicode hex="0053"/>
  <outline>
    <contour>
      <point x="482" y="208" type="curve" smooth="yes"/>
      <point x="482" y="71"/>
      <point x="390" y="-9"/>
      <point x="251" y="-9" type="curve" smooth="yes"/>
      <point x="147" y="-9"/>
      <point x="78" y="25"/>
      <point x="12" y="114" type="curve"/>
      <point x="136" y="223" type="line"/>
      <point x="182" y="165"/>
      <point x="221" y="144"/>
      <point x="258" y="144" type="curve" smooth="yes"/>
      <point x="290" y="144"/>
      <point x="307" y="162"/>
      <point x="307" y="189" type="curve" smooth="yes"/>
      <point x="307" y="223"/>
      <point x="278" y="243"/>
      <point x="199" y="275" type="curve" smooth="yes"/>
      <point x="69" y="328"/>
      <point x="24" y="391"/>
      <point x="24" y="515" type="curve" smooth="yes"/>
      <point x="24" y="637"/>
      <point x="104" y="729"/>
      <point x="243" y="729" type="curve" smooth="yes"/>
      <point x="354" y="729"/>
      <point x="414" y="690"/>
      <point x="469" y="613" type="curve"/>
      <point x="345" y="504" type="line"/>
      <point x="301" y="561"/>
      <point x="273" y="576"/>
      <point x="238" y="576" type="curve" smooth="yes"/>
      <point x="210" y="576"/>
      <point x="194" y="558"/>
      <point x="194" y="534" type="curve" smooth="yes"/>
      <point x="194" y="503"/>
      <point x="209" y="482"/>
      <point x="297" y="448" type="curve" smooth="yes"/>
      <point x="443" y="391"/>
      <point x="482" y="325"/>
    </contour>
  </outline>
</glyph>
<glyph name="U" format="1">
  <advance width="508"/>
  <unicode hex="0055"/>
  <outline>
    <contour>
      <point x="484" y="237" type="line" smooth="yes"/>
      <point x="484" y="60"/>
      <point x="405" y="-12"/>
      <point x="254" y="-12" type="curve" smooth="yes"/>
      <point x="103" y="-12"/>
      <point x="24" y="63"/>
      <point x="24" y="240" type="curve" smooth="yes"/>
      <point x="24" y="720" type="line"/>
      <point x="220" y="720" type="line"/>
      <point x="220" y="212" type="line" smooth="yes"/>
      <point x="220" y="158"/>
      <point x="231" y="135"/>
      <point x="259" y="135" type="curve" smooth="yes"/>
      <point x="287" y="135"/>
      <point x="298" y="158"/>
      <point x="298" y="212" type="curve" smooth="yes"/>
      <point x="298" y="720" type="line"/>
      <point x="484" y="720" type="line"/>
    </contour>
  </outline>
</glyph>
<glyph name="V" format="1">
  <advance width="552"/>
  <unicode hex="0056"/>
  <outline>
    <contour>
      <point x="549" y="720" type="line"/>
      <point x="390" y="-3" type="line"/>
      <point x="162" y="-3" type="line"/>
      <point x="3" y="720" type="line"/>
      <point x="209" y="720" type="line"/>
      <point x="278" y="262" type="line"/>
      <point x="282" y="262" type="line"/>
      <point x="351" y="720" type="line"/>
    </contour>
  </outline>
</glyph>
<glyph name="Y" format="1">
  <advance width="513"/>
  <unicode hex="0059"/>
  <outline>
    <contour>
      <point x="513" y="720" type="line"/>
      <point x="355" y="293" type="line"/>
      <point x="355" y="0" type="line"/>
      <point x="159" y="0" type="line"/>
      <point x="159" y="289" type="line"/>
      <point x="0" y="720" type="line"/>
      <point x="209" y="720" type="line"/>
      <point x="270" y="480" type="line"/>
      <point x="331" y="720" type="line"/>
    </contour>
  </outline>
</glyph>
<glyph name="backslash" format="1">
  <advance width="385"/>
  <unicode hex="005C"/>
  <outline>
    <contour>
      <point x="404" y="-95" type="line"/>
      <point x="251" y="-95" type="line"/>
      <point x="5" y="735" type="line"/>
      <point x="158" y="735" type="line"/>
    </contour>
  </outline>
</glyph>
<glyph name="bracketright" format="1">
  <advance width="342"/>
  <unicode hex="005D"/>
  <outline>
    <contour>
      <point x="299" y="-91" type="line"/>
      <point x="17" y="-80" type="line"/>
      <point x="17" y="-5" type="line"/>
      <point x="145" y="-10" type="line"/>
      <point x="145" y="650" type="line"/>
      <point x="17" y="645" type="line"/>
      <point x="17" y="720" type="line"/>
      <point x="299" y="731" type="line"/>
    </contour>
  </outline>
</glyph>
<glyph name="asciicircum" format="1">
  <advance width="442"/>
  <unicode hex="005E"/>
  <outline>
    <contour>
      <point x="431" y="405" type="line"/>
      <point x="315" y="405" type="line"/>
      <point x="221" y="549" type="line"/>
      <point x="128" y="405" type="line"/>
      <point x="11" y="405" type="line"/>
      <point x="145" y="723" type="line"/>
      <point x="297" y="723" type="line"/>
    </contour>
  </outline>
</glyph>
<glyph name="a" format="1">
  <advance width="458"/>
  <unicode hex="0061"/>
  <outline>
    <contour>
      <point x="454" y="-5" type="line"/>
      <point x="340" y="-5"/>
      <point x="284" y="24"/>
      <point x="257" y="67" type="curve"/>
      <point x="251" y="67" type="line"/>
      <point x="225" y="27"/>
      <point x="186" y="-5"/>
      <point x="130" y="-5" type="curve" smooth="yes"/>
      <point x="54" y="-5"/>
      <point x="6" y="48"/>
      <point x="6" y="141" type="curve" smooth="yes"/>
      <point x="6" y="246"/>
      <point x="79" y="307"/>
      <point x="243" y="325" type="curve"/>
      <point x="243" y="365" type="line" smooth="yes"/>
      <point x="243" y="396"/>
      <point x="227" y="416"/>
      <point x="197" y="416" type="curve" smooth="yes"/>
      <point x="167" y="416"/>
      <point x="129" y="407"/>
      <point x="71" y="373" type="curve"/>
      <point x="24" y="483" type="line"/>
      <point x="94" y="524"/>
      <point x="171" y="548"/>
      <point x="253" y="548" type="curve" smooth="yes"/>
      <point x="374" y="548"/>
      <point x="424" y="501"/>
      <point x="424" y="383" type="curve" smooth="yes"/>
      <point x="424" y="108" type="line" smooth="yes"/>
      <point x="424" y="76"/>
      <point x="430" y="69"/>
      <point x="454" y="63" type="curve"/>
    </contour>
    <contour>
      <point x="243" y="114" type="curve"/>
      <point x="243" y="255" type="line"/>
      <point x="193" y="240"/>
      <point x="179" y="210"/>
      <point x="179" y="167" type="curve" smooth="yes"/>
      <point x="179" y="128"/>
      <point x="195" y="110"/>
      <point x="221" y="110" type="curve" smooth="yes"/>
      <point x="230" y="110"/>
      <point x="236" y="111"/>
    </contour>
  </outline>
</glyph>
<glyph name="c" format="1">
  <advance width="426"/>
  <unicode hex="0063"/>
  <outline>
    <contour>
      <point x="418" y="189" type="line"/>
      <point x="404" y="58"/>
      <point x="347" y="-10"/>
      <point x="220" y="-10" type="curve" smooth="yes"/>
      <point x="92" y="-10"/>
      <point x="16" y="82"/>
      <point x="16" y="242" type="curve" smooth="yes"/>
      <point x="16" y="300" type="line" smooth="yes"/>
      <point x="16" y="460"/>
      <point x="99" y="552"/>
      <point x="226" y="552" type="curve" smooth="yes"/>
      <point x="352" y="552"/>
      <point x="409" y="469"/>
      <point x="417" y="353" type="curve"/>
      <point x="260" y="325" type="line"/>
      <point x="259" y="408"/>
      <point x="249" y="428"/>
      <point x="230" y="428" type="curve" smooth="yes"/>
      <point x="209" y="428"/>
      <point x="199" y="405"/>
      <point x="199" y="313" type="curve" smooth="yes"/>
      <point x="199" y="229" type="line" smooth="yes"/>
      <point x="199" y="137"/>
      <point x="210" y="114"/>
      <point x="230" y="114" type="curve" smooth="yes"/>
      <point x="250" y="114"/>
      <point x="262" y="134"/>
      <point x="267" y="216" type="curve"/>
    </contour>
  </outline>
</glyph>
<glyph name="e" format="1">
  <advance width="459"/>
  <unicode hex="0065"/>
  <outline>
    <contour>
      <point x="442" y="222" type="line"/>
      <point x="193" y="222" type="line"/>
      <point x="190" y="222" type="line"/>
      <point x="193" y="147"/>
      <point x="223" y="129"/>
      <point x="281" y="129" type="curve" smooth="yes"/>
      <point x="316" y="129"/>
      <point x="367" y="144"/>
      <point x="415" y="168" type="curve"/>
      <point x="450" y="43" type="line"/>
      <point x="387" y="11"/>
      <point x="323" y="-7"/>
      <point x="243" y="-7" type="curve" smooth="yes"/>
      <point x="98" y="-7"/>
      <point x="16" y="79"/>
      <point x="16" y="242" type="curve" smooth="yes"/>
      <point x="16" y="300" type="line" smooth="yes"/>
      <point x="16" y="460"/>
      <point x="96" y="552"/>
      <point x="233" y="552" type="curve" smooth="yes"/>
      <point x="370" y="552"/>
      <point x="442" y="455"/>
      <point x="442" y="287" type="curve" smooth="yes"/>
    </contour>
    <contour>
      <point x="274" y="297" type="line"/>
      <point x="274" y="417"/>
      <point x="260" y="437"/>
      <point x="232" y="437" type="curve" smooth="yes"/>
      <point x="205" y="437"/>
      <point x="190" y="415"/>
      <point x="190" y="297" type="curve"/>
      <point x="193" y="297" type="line"/>
    </contour>
  </outline>
</glyph>
<glyph name="f" format="1">
  <advance width="335"/>
  <unicode hex="0066"/>
  <outline>
    <contour>
      <point x="347" y="630" type="line"/>
      <point x="329" y="636"/>
      <point x="317" y="638"/>
      <point x="298" y="638" type="curve" smooth="yes"/>
      <point x="265" y="638"/>
      <point x="247" y="622"/>
      <point x="247" y="581" type="curve" smooth="yes"/>
      <point x="247" y="540" type="line"/>
      <point x="331" y="540" type="line"/>
      <point x="331" y="419" type="line"/>
      <point x="247" y="419" type="line"/>
      <point x="247" y="0" type="line"/>
      <point x="66" y="0" type="line"/>
      <point x="66" y="419" type="line"/>
      <point x="2" y="419" type="line"/>
      <point x="2" y="540" type="line"/>
      <point x="66" y="540" type="line"/>
      <point x="66" y="597" type="line" smooth="yes"/>
      <point x="66" y="703"/>
      <point x="124" y="759"/>
      <point x="236" y="759" type="curve" smooth="yes"/>
      <point x="290" y="759"/>
      <point x="315" y="756"/>
      <point x="347" y="748" type="curve"/>
    </contour>
  </outline>
</glyph>
<glyph name="h" format="1">
  <advance width="476"/>
  <unicode hex="0068"/>
  <outline>
    <contour>
      <point x="454" y="0" type="line"/>
      <point x="268" y="0" type="line"/>
      <point x="268" y="371" type="line" smooth="yes"/>
      <point x="268" y="397"/>
      <point x="260" y="410"/>
      <point x="239" y="410" type="curve" smooth="yes"/>
      <point x="229" y="410"/>
      <point x="220" y="407"/>
      <point x="210" y="402" type="curve"/>
      <point x="210" y="0" type="line"/>
      <point x="24" y="0" type="line"/>
      <point x="24" y="730" type="line"/>
      <point x="210" y="754" type="line"/>
      <point x="210" y="450" type="line"/>
      <point x="213" y="450" type="line"/>
      <point x="264" y="521"/>
      <point x="301" y="549"/>
      <point x="353" y="549" type="curve" smooth="yes"/>
      <point x="415" y="549"/>
      <point x="454" y="507"/>
      <point x="454" y="416" type="curve" smooth="yes"/>
    </contour>
  </outline>
</glyph>
<glyph name="k" format="1">
  <advance width="492"/>
  <unicode hex="006B"/>
  <outline>
    <contour>
      <point x="495" y="0" type="line"/>
      <point x="300" y="0" type="line"/>
      <point x="215" y="272" type="line"/>
      <point x="215" y="275" type="line"/>
      <point x="297" y="542" type="line"/>
      <point x="489" y="542" type="line"/>
      <point x="393" y="277" type="line"/>
    </contour>
    <contour>
      <point x="210" y="0" type="line"/>
      <point x="24" y="0" type="line"/>
      <point x="24" y="730" type="line"/>
      <point x="210" y="754" type="line"/>
    </contour>
  </outline>
</glyph>
<glyph name="l" format="1">
  <advance width="238"/>
  <unicode hex="006C"/>
  <outline>
    <contour>
      <point x="212" y="0" type="line"/>
      <point x="26" y="0" type="line"/>
      <point x="26" y="730" type="line"/>
      <point x="212" y="754" type="line"/>
    </contour>
  </outline>
</glyph>
<glyph name="o" format="1">
  <advance width="465"/>
  <unicode hex="006F"/>
  <outline>
    <contour>
      <point x="450" y="242" type="line" smooth="yes"/>
      <point x="450" y="82"/>
      <point x="370" y="-10"/>
      <point x="233" y="-10" type="curve" smooth="yes"/>
      <point x="96" y="-10"/>
      <point x="16" y="82"/>
      <point x="16" y="242" type="curve" smooth="yes"/>
      <point x="16" y="300" type="line" smooth="yes"/>
      <point x="16" y="460"/>
      <point x="96" y="552"/>
      <point x="233" y="552" type="curve" smooth="yes"/>
      <point x="370" y="552"/>
      <point x="450" y="460"/>
      <point x="450" y="300" type="curve" smooth="yes"/>
    </contour>
    <contour>
      <point x="267" y="229" type="curve" smooth="yes"/>
      <point x="267" y="313" type="line" smooth="yes"/>
      <point x="267" y="405"/>
      <point x="260" y="432"/>
      <point x="233" y="432" type="curve" smooth="yes"/>
      <point x="206" y="432"/>
      <point x="199" y="405"/>
      <point x="199" y="313" type="curve" smooth="yes"/>
      <point x="199" y="229" type="line" smooth="yes"/>
      <point x="199" y="137"/>
      <point x="206" y="110"/>
      <point x="233" y="110" type="curve" smooth="yes"/>
      <point x="260" y="110"/>
      <point x="267" y="137"/>
    </contour>
  </outline>
</glyph>
<glyph name="u" format="1">
  <advance width="476"/>
  <unicode hex="0075"/>
  <outline>
    <contour>
      <point x="452" y="16" type="line"/>
      <point x="266" y="-8" type="line"/>
      <point x="266" y="92" type="line"/>
      <point x="263" y="92" type="line"/>
      <point x="212" y="21"/>
      <point x="175" y="-7"/>
      <point x="123" y="-7" type="curve" smooth="yes"/>
      <point x="61" y="-7"/>
      <point x="22" y="35"/>
      <point x="22" y="126" type="curve" smooth="yes"/>
      <point x="22" y="542" type="line"/>
      <point x="208" y="542" type="line"/>
      <point x="208" y="171" type="line" smooth="yes"/>
      <point x="208" y="145"/>
      <point x="216" y="132"/>
      <point x="237" y="132" type="curve" smooth="yes"/>
      <point x="247" y="132"/>
      <point x="256" y="135"/>
      <point x="266" y="140" type="curve"/>
      <point x="266" y="542" type="line"/>
      <point x="452" y="542" type="line"/>
    </contour>
  </outline>
</glyph>
<glyph name="v" format="1">
  <advance width="469"/>
  <unicode hex="0076"/>
  <outline>
    <contour>
      <point x="467" y="542" type="line"/>
      <point x="346" y="-4" type="line"/>
      <point x="123" y="-4" type="line"/>
      <point x="2" y="542" type="line"/>
      <point x="189" y="542" type="line"/>
      <point x="240" y="178" type="line"/>
      <point x="291" y="542" type="line"/>
    </contour>
  </outline>
</glyph>
<glyph name="w" format="1">
  <advance width="716"/>
  <unicode hex="0077"/>
  <outline>
    <contour>
      <point x="713" y="542" type="line"/>
      <point x="612" y="-4" type="line"/>
      <point x="405" y="-4" type="line"/>
      <point x="360" y="300" type="line"/>
      <point x="314" y="-4" type="line"/>
      <point x="104" y="-4" type="line"/>
      <point x="3" y="542" type="line"/>
      <point x="185" y="542" type="line"/>
      <point x="221" y="218" type="line"/>
      <point x="264" y="542" type="line"/>
      <point x="460" y="542" type="line"/>
      <point x="503" y="218" type="line"/>
      <point x="539" y="542" type="line"/>
    </contour>
  </outline>
</glyph>
<glyph name="x" format="1">
  <advance width="478"/>
  <unicode hex="0078"/>
  <outline>
    <contour>
      <point x="478" y="0" type="line"/>
      <point x="280" y="0" type="line"/>
      <point x="227" y="134" type="line"/>
      <point x="171" y="0" type="line"/>
      <point x="0" y="0" type="line"/>
      <point x="131" y="272" type="line"/>
      <point x="4" y="542" type="line"/>
      <point x="202" y="542" type="line"/>
      <point x="251" y="416" type="line"/>
      <point x="302" y="542" type="line"/>
      <point x="474" y="542" type="line"/>
      <point x="347" y="278" type="line"/>
    </contour>
  </outline>
</glyph>
<glyph name="y" format="1">
  <advance width="479"/>
  <unicode hex="0079"/>
  <outline>
    <contour>
      <point x="467" y="542" type="line"/>
      <point x="344" y="3" type="line" smooth="yes"/>
      <point x="310" y="-144"/>
      <point x="259" y="-191"/>
      <point x="148" y="-191" type="curve" smooth="yes"/>
      <point x="91" y="-191"/>
      <point x="59" y="-182"/>
      <point x="26" y="-169" type="curve"/>
      <point x="26" y="-52" type="line"/>
      <point x="59" y="-52" type="line"/>
      <point x="75" y="-84"/>
      <point x="88" y="-99"/>
      <point x="116" y="-99" type="curve" smooth="yes"/>
      <point x="139" y="-99"/>
      <point x="150" y="-87"/>
      <point x="156" y="-78" type="curve" smooth="yes"/>
      <point x="158" y="-75" type="line"/>
      <point x="2" y="542" type="line"/>
      <point x="189" y="542" type="line"/>
      <point x="240" y="141" type="line"/>
      <point x="291" y="542" type="line"/>
    </contour>
  </outline>
</glyph>
<glyph name="exclamdown" format="1">
  <advance width="254"/>
  <unicode hex="00A1"/>
  <outline>
    <contour>
      <point x="222" y="632" type="curve" smooth="yes"/>
      <point x="222" y="578"/>
      <point x="181" y="537"/>
      <point x="127" y="537" type="curve" smooth="yes"/>
      <point x="73" y="537"/>
      <point x="32" y="578"/>
      <point x="32" y="632" type="curve" smooth="yes"/>
      <point x="32" y="686"/>
      <point x="73" y="727"/>
      <point x="127" y="727" type="curve" smooth="yes"/>
      <point x="181" y="727"/>
      <point x="222" y="686"/>
    </contour>
    <contour>
      <point x="234" y="0" type="line"/>
      <point x="20" y="0" type="line"/>
      <point x="77" y="487" type="line"/>
      <point x="177" y="487" type="line"/>
    </contour>
  </outline>
</glyph>
<glyph name="cent" format="1">
  <advance width="426"/>
  <unicode hex="00A2"/>
  <outline>
    <contour>
      <point x="418" y="189" type="line"/>
      <point x="404" y="58"/>
      <point x="347" y="-10"/>
      <point x="220" y="-10" type="curve" smooth="yes"/>
      <point x="190" y="-10"/>
      <point x="163" y="-5"/>
      <point x="139" y="5" type="curve"/>
      <point x="92" y="-95" type="line"/>
      <point x="21" y="-95" type="line"/>
      <point x="85" y="39" type="line"/>
      <point x="40" y="82"/>
      <point x="16" y="151"/>
      <point x="16" y="242" type="curve" smooth="yes"/>
      <point x="16" y="300" type="line" smooth="yes"/>
      <point x="16" y="460"/>
      <point x="99" y="552"/>
      <point x="226" y="552" type="curve" smooth="yes"/>
      <point x="260" y="552"/>
      <point x="289" y="546"/>
      <point x="313" y="535" type="curve"/>
      <point x="359" y="637" type="line"/>
      <point x="428" y="637" type="line"/>
      <point x="202" y="126" type="line"/>
      <point x="210" y="113"/>
      <point x="220" y="109"/>
      <point x="230" y="109" type="curve" smooth="yes"/>
      <point x="253" y="109"/>
      <point x="272" y="129"/>
      <point x="277" y="216" type="curve"/>
    </contour>
    <contour>
      <point x="262" y="416" type="line"/>
      <point x="254" y="431"/>
      <point x="242" y="435"/>
      <point x="230" y="435" type="curve" smooth="yes"/>
      <point x="209" y="435"/>
      <point x="185" y="413"/>
      <point x="185" y="311" type="curve" smooth="yes"/>
      <point x="185" y="241" type="line"/>
      <point x="185" y="238" type="line"/>
    </contour>
  </outline>
</glyph>
<glyph name="sterling" format="1">
  <advance width="513"/>
  <unicode hex="00A3"/>
  <outline>
    <contour>
      <point x="506" y="198" type="line"/>
      <point x="473" y="53"/>
      <point x="414" y="-5"/>
      <point x="341" y="-5" type="curve" smooth="yes"/>
      <point x="298" y="-5"/>
      <point x="250" y="15"/>
      <point x="201" y="51" type="curve"/>
      <point x="156" y="17"/>
      <point x="95" y="-4"/>
      <point x="15" y="-6" type="curve"/>
      <point x="15" y="129" type="line"/>
      <point x="87" y="134"/>
      <point x="112" y="170"/>
      <point x="112" y="246" type="curve" smooth="yes"/>
      <point x="112" y="267"/>
      <point x="109" y="292"/>
      <point x="105" y="310" type="curve"/>
      <point x="17" y="310" type="line"/>
      <point x="17" y="405" type="line"/>
      <point x="80" y="405" type="line"/>
      <point x="71" y="433"/>
      <point x="58" y="478"/>
      <point x="58" y="527" type="curve" smooth="yes"/>
      <point x="58" y="661"/>
      <point x="133" y="732"/>
      <point x="268" y="732" type="curve" smooth="yes"/>
      <point x="406" y="732"/>
      <point x="455" y="659"/>
      <point x="493" y="545" type="curve"/>
      <point x="344" y="479" type="line"/>
      <point x="321" y="559"/>
      <point x="301" y="577"/>
      <point x="277" y="577" type="curve" smooth="yes"/>
      <point x="251" y="577"/>
      <point x="236" y="560"/>
      <point x="236" y="518" type="curve" smooth="yes"/>
      <point x="236" y="484"/>
      <point x="249" y="438"/>
      <point x="262" y="405" type="curve"/>
      <point x="404" y="405" type="line"/>
      <point x="404" y="310" type="line"/>
      <point x="285" y="310" type="line"/>
      <point x="287" y="290"/>
      <point x="290" y="265"/>
      <point x="290" y="243" type="curve" smooth="yes"/>
      <point x="290" y="213"/>
      <point x="285" y="185"/>
      <point x="277" y="160" type="curve"/>
      <point x="292" y="153"/>
      <point x="306" y="149"/>
      <point x="319" y="149" type="curve" smooth="yes"/>
      <point x="351" y="149"/>
      <point x="375" y="175"/>
      <point x="399" y="243" type="curve"/>
    </contour>
  </outline>
</glyph>
<glyph name="yen" format="1">
  <advance width="513"/>
  <unicode hex="00A5"/>
  <outline>
    <contour>
      <point x="513" y="720" type="line"/>
      <point x="397" y="417" type="line"/>
      <point x="483" y="417" type="line"/>
      <point x="483" y="322" type="line"/>
      <point x="361" y="322" type="line"/>
      <point x="350" y="293" type="line"/>
      <point x="350" y="267" type="line"/>
      <point x="483" y="267" type="line"/>
      <point x="483" y="172" type="line"/>
      <point x="350" y="172" type="line"/>
      <point x="350" y="0" type="line"/>
      <point x="164" y="0" type="line"/>
      <point x="164" y="172" type="line"/>
      <point x="31" y="172" type="line"/>
      <point x="31" y="267" type="line"/>
      <point x="164" y="267" type="line"/>
      <point x="164" y="289" type="line"/>
      <point x="151" y="322" type="line"/>
      <point x="31" y="322" type="line"/>
      <point x="31" y="417" type="line"/>
      <point x="115" y="417" type="line"/>
      <point x="0" y="720" type="line"/>
      <point x="204" y="720" type="line"/>
      <point x="270" y="465" type="line"/>
      <point x="336" y="720" type="line"/>
    </contour>
  </outline>
</glyph>
<glyph name="guillemotleft" format="1">
  <advance width="450"/>
  <unicode hex="00AB"/>
  <outline>
    <contour>
      <point x="430" y="65" type="line"/>
      <point x="340" y="65" type="line"/>
      <point x="205" y="271" type="line"/>
      <point x="340" y="477" type="line"/>
      <point x="430" y="477" type="line"/>
      <point x="375" y="271" type="line"/>
    </contour>
    <contour>
      <point x="232" y="65" type="line"/>
      <point x="143" y="65" type="line"/>
      <point x="8" y="271" type="line"/>
      <point x="143" y="477" type="line"/>
      <point x="232" y="477" type="line"/>
      <point x="178" y="271" type="line"/>
    </contour>
  </outline>
</glyph>
<glyph name="degree" format="1">
  <advance width="360"/>
  <unicode hex="00B0"/>
  <outline>
    <contour>
      <point x="334" y="577" type="curve" smooth="yes"/>
      <point x="334" y="492"/>
      <point x="271" y="430"/>
      <point x="185" y="430" type="curve" smooth="yes"/>
      <point x="100" y="430"/>
      <point x="37" y="492"/>
      <point x="37" y="577" type="curve" smooth="yes"/>
      <point x="37" y="662"/>
      <point x="100" y="724"/>
      <point x="185" y="724" type="curve" smooth="yes"/>
      <point x="271" y="724"/>
      <point x="334" y="662"/>
    </contour>
    <contour>
      <point x="252" y="577" type="curve" smooth="yes"/>
      <point x="252" y="619"/>
      <point x="227" y="652"/>
      <point x="185" y="652" type="curve" smooth="yes"/>
      <point x="144" y="652"/>
      <point x="119" y="619"/>
      <point x="119" y="577" type="curve" smooth="yes"/>
      <point x="119" y="535"/>
      <point x="144" y="502"/>
      <point x="185" y="502" type="curve" smooth="yes"/>
      <point x="227" y="502"/>
      <point x="252" y="535"/>
    </contour>
  </outline>
</glyph>
<glyph name="paragraph" format="1">
  <advance width="454"/>
  <unicode hex="00B6"/>
  <outline>
    <contour>
      <point x="418" y="0" type="line"/>
      <point x="356" y="0" type="line"/>
      <point x="356" y="649" type="line"/>
      <point x="291" y="649" type="line"/>
      <point x="291" y="0" type="line"/>
      <point x="229" y="0" type="line"/>
      <point x="229" y="277" type="line"/>
      <point x="89" y="280"/>
      <point x="12" y="335"/>
      <point x="12" y="497" type="curve" smooth="yes"/>
      <point x="12" y="653"/>
      <point x="96" y="720"/>
      <point x="233" y="720" type="curve" smooth="yes"/>
      <point x="418" y="720" type="line"/>
    </contour>
  </outline>
</glyph>
<glyph name="cedilla" format="1">
  <advance width="400"/>
  <unicode hex="00B8"/>
  <outline>
    <contour>
      <point x="312" y="-95" type="curve" smooth="yes"/>
      <point x="312" y="-163"/>
      <point x="250" y="-195"/>
      <point x="72" y="-191" type="curve"/>
      <point x="72" y="-156" type="line"/>
      <point x="187" y="-156"/>
      <point x="222" y="-142"/>
      <point x="222" y="-120" type="curve" smooth="yes"/>
      <point x="222" y="-108"/>
      <point x="213" y="-102"/>
      <point x="195" y="-102" type="curve" smooth="yes"/>
      <point x="181" y="-102"/>
      <point x="165" y="-106"/>
      <point x="150" y="-112" type="curve"/>
      <point x="118" y="-88" type="line"/>
      <point x="178" y="0" type="line"/>
      <point x="223" y="0" type="line"/>
      <point x="195" y="-41" type="line"/>
      <point x="203" y="-40"/>
      <point x="220" y="-38"/>
      <point x="235" y="-38" type="curve" smooth="yes"/>
      <point x="280" y="-38"/>
      <point x="312" y="-56"/>
    </contour>
  </outline>
</glyph>
<glyph name="ordmasculine" format="1">
  <advance width="317"/>
  <unicode hex="00BA"/>
  <outline>
    <contour>
      <point x="306" y="515" type="line" smooth="yes"/>
      <point x="306" y="406"/>
      <point x="252" y="343"/>
      <point x="158" y="343" type="curve" smooth="yes"/>
      <point x="65" y="343"/>
      <point x="11" y="406"/>
      <point x="11" y="515" type="curve" smooth="yes"/>
      <point x="11" y="554" type="line" smooth="yes"/>
      <point x="11" y="663"/>
      <point x="65" y="725"/>
      <point x="158" y="725" type="curve" smooth="yes"/>
      <point x="252" y="725"/>
      <point x="306" y="663"/>
      <point x="306" y="554" type="curve" smooth="yes"/>
    </contour>
    <contour>
      <point x="299" y="238" type="line"/>
      <point x="17" y="238" type="line"/>
      <point x="17" y="313" type="line"/>
      <point x="299" y="313" type="line"/>
    </contour>
    <contour>
      <point x="182" y="506" type="curve" smooth="yes"/>
      <point x="182" y="563" type="line" smooth="yes"/>
      <point x="182" y="625"/>
      <point x="177" y="644"/>
      <point x="158" y="644" type="curve" smooth="yes"/>
      <point x="140" y="644"/>
      <point x="135" y="625"/>
      <point x="135" y="563" type="curve" smooth="yes"/>
      <point x="135" y="506" type="line" smooth="yes"/>
      <point x="135" y="443"/>
      <point x="140" y="425"/>
      <point x="158" y="425" type="curve" smooth="yes"/>
      <point x="177" y="425"/>
      <point x="182" y="443"/>
    </contour>
  </outline>
</glyph>
<glyph name="multiply" format="1">
  <advance width="510"/>
  <unicode hex="00D7"/>
  <outline>
    <contour>
      <point x="461" y="246" type="line"/>
      <point x="362" y="147" type="line"/>
      <point x="254" y="254" type="line"/>
      <point x="147" y="147" type="line"/>
      <point x="48" y="246" type="line"/>
      <point x="155" y="353" type="line"/>
      <point x="48" y="460" type="line"/>
      <point x="147" y="559" type="line"/>
      <point x="254" y="452" type="line"/>
      <point x="361" y="560" type="line"/>
      <point x="460" y="461" type="line"/>
      <point x="353" y="353" type="line"/>
    </contour>
  </outline>
</glyph>
<glyph name="Oslash" format="1">
  <advance width="528"/>
  <unicode hex="00D8"/>
  <outline>
    <contour>
      <point x="511" y="817" type="line"/>
      <point x="438" y="661" type="line"/>
      <point x="482" y="612"/>
      <point x="508" y="535"/>
      <point x="508" y="427" type="curve" smooth="yes"/>
      <point x="508" y="293" type="line" smooth="yes"/>
      <point x="508" y="80"/>
      <point x="407" y="-12"/>
      <point x="264" y="-12" type="curve" smooth="yes"/>
      <point x="225" y="-12"/>
      <point x="189" y="-5"/>
      <point x="157" y="9" type="curve"/>
      <point x="115" y="-95" type="line"/>
      <point x="19" y="-95" type="line"/>
      <point x="90" y="58" type="line"/>
      <point x="46" y="107"/>
      <point x="20" y="184"/>
      <point x="20" y="293" type="curve" smooth="yes"/>
      <point x="20" y="427" type="line" smooth="yes"/>
      <point x="20" y="640"/>
      <point x="121" y="732"/>
      <point x="264" y="732" type="curve" smooth="yes"/>
      <point x="303" y="732"/>
      <point x="340" y="725"/>
      <point x="372" y="710" type="curve"/>
      <point x="415" y="817" type="line"/>
    </contour>
    <contour>
      <point x="307" y="554" type="line"/>
      <point x="300" y="582"/>
      <point x="288" y="597"/>
      <point x="264" y="597" type="curve" smooth="yes"/>
      <point x="226" y="597"/>
      <point x="215" y="557"/>
      <point x="215" y="483" type="curve" smooth="yes"/>
      <point x="215" y="324" type="line"/>
      <point x="216" y="326" type="line"/>
    </contour>
    <contour>
      <point x="313" y="238" type="curve" smooth="yes"/>
      <point x="313" y="386" type="line"/>
      <point x="313" y="392" type="line"/>
      <point x="221" y="165" type="line"/>
      <point x="228" y="139"/>
      <point x="241" y="124"/>
      <point x="264" y="124" type="curve" smooth="yes"/>
      <point x="302" y="124"/>
      <point x="313" y="164"/>
    </contour>
  </outline>
</glyph>
<glyph name="Lslash" format="1">
  <advance width="440"/>
  <unicode hex="0141"/>
  <outline>
    <contour>
      <point x="427" y="0" type="line"/>
      <point x="53" y="0" type="line"/>
      <point x="53" y="253" type="line"/>
      <point x="17" y="236" type="line"/>
      <point x="17" y="402" type="line"/>
      <point x="53" y="419" type="line"/>
      <point x="53" y="720" type="line"/>
      <point x="249" y="720" type="line"/>
      <point x="249" y="515" type="line"/>
      <point x="338" y="558" type="line"/>
      <point x="338" y="392" type="line"/>
      <point x="249" y="349" type="line"/>
      <point x="249" y="160" type="line"/>
      <point x="427" y="160" type="line"/>
    </contour>
  </outline>
</glyph>
<glyph name="lslash" format="1">
  <advance width="366"/>
  <unicode hex="0142"/>
  <outline>
    <contour>
      <point x="351" y="370" type="line"/>
      <point x="281" y="341" type="line"/>
      <point x="281" y="0" type="line"/>
      <point x="85" y="0" type="line"/>
      <point x="85" y="268" type="line"/>
      <point x="15" y="239" type="line"/>
      <point x="15" y="399" type="line"/>
      <point x="85" y="428" type="line"/>
      <point x="85" y="730" type="line"/>
      <point x="281" y="754" type="line"/>
      <point x="281" y="501" type="line"/>
      <point x="351" y="530" type="line"/>
    </contour>
  </outline>
</glyph>
<glyph name="OE" format="1">
  <advance width="708"/>
  <unicode hex="0152"/>
  <outline>
    <contour>
      <point x="692" y="0" type="line"/>
      <point x="259" y="0" type="line" smooth="yes"/>
      <point x="124" y="0"/>
      <point x="20" y="87"/>
      <point x="20" y="302" type="curve" smooth="yes"/>
      <point x="20" y="418" type="line" smooth="yes"/>
      <point x="20" y="635"/>
      <point x="126" y="720"/>
      <point x="259" y="720" type="curve" smooth="yes"/>
      <point x="684" y="720" type="line"/>
      <point x="684" y="564" type="line"/>
      <point x="489" y="564" type="line"/>
      <point x="489" y="444" type="line"/>
      <point x="620" y="444" type="line"/>
      <point x="620" y="296" type="line"/>
      <point x="489" y="296" type="line"/>
      <point x="489" y="156" type="line"/>
      <point x="692" y="156" type="line"/>
    </contour>
    <contour>
      <point x="298" y="137" type="line"/>
      <point x="298" y="582" type="line"/>
      <point x="274" y="582" type="line" smooth="yes"/>
      <point x="231" y="582"/>
      <point x="210" y="540"/>
      <point x="210" y="467" type="curve" smooth="yes"/>
      <point x="210" y="253" type="line" smooth="yes"/>
      <point x="210" y="179"/>
      <point x="231" y="137"/>
      <point x="274" y="137" type="curve" smooth="yes"/>
    </contour>
  </outline>
</glyph>
<glyph name="circumflex" format="1">
  <advance width="400"/>
  <unicode hex="02C6"/>
  <outline>
    <contour>
      <point x="346" y="582" type="line"/>
      <point x="265" y="582" type="line"/>
      <point x="201" y="634" type="line"/>
      <point x="137" y="582" type="line"/>
      <point x="54" y="582" type="line"/>
      <point x="131" y="722" type="line"/>
      <point x="269" y="722" type="line"/>
    </contour>
  </outline>
</glyph>
<glyph name="caron" format="1">
  <advance width="400"/>
  <unicode hex="02C7"/>
  <outline>
    <contour>
      <point x="346" y="722" type="line"/>
      <point x="269" y="582" type="line"/>
      <point x="131" y="582" type="line"/>
      <point x="54" y="722" type="line"/>
      <point x="135" y="722" type="line"/>
      <point x="199" y="670" type="line"/>
      <point x="263" y="722" type="line"/>
    </contour>
  </outline>
</glyph>
<glyph name="ring" format="1">
  <advance width="400"/>
  <unicode hex="02DA"/>
  <outline>
    <contour>
      <point x="315" y="675" type="curve" smooth="yes"/>
      <point x="315" y="616"/>
      <point x="271" y="575"/>
      <point x="200" y="575" type="curve" smooth="yes"/>
      <point x="129" y="575"/>
      <point x="85" y="616"/>
      <point x="85" y="675" type="curve" smooth="yes"/>
      <point x="85" y="732"/>
      <point x="129" y="774"/>
      <point x="200" y="774" type="curve" smooth="yes"/>
      <point x="271" y="774"/>
      <point x="315" y="732"/>
    </contour>
    <contour>
      <point x="243" y="675" type="curve" smooth="yes"/>
      <point x="243" y="701"/>
      <point x="225" y="720"/>
      <point x="200" y="720" type="curve" smooth="yes"/>
      <point x="175" y="720"/>
      <point x="157" y="701"/>
      <point x="157" y="675" type="curve" smooth="yes"/>
      <point x="157" y="648"/>
      <point x="174" y="629"/>
      <point x="200" y="629" type="curve" smooth="yes"/>
      <point x="226" y="629"/>
      <point x="243" y="648"/>
    </contour>
  </outline>
</glyph>
<glyph name="ogonek" format="1">
  <advance width="400"/>
  <unicode hex="02DB"/>
  <outline>
    <contour>
      <point x="319" y="-158" type="line"/>
      <point x="282" y="-180"/>
      <point x="245" y="-190"/>
      <point x="196" y="-190" type="curve" smooth="yes"/>
      <point x="131" y="-190"/>
      <point x="97" y="-161"/>
      <point x="97" y="-114" type="curve" smooth="yes"/>
      <point x="97" y="-71"/>
      <point x="128" y="-33"/>
      <point x="190" y="0" type="curve"/>
      <point x="257" y="0" type="line"/>
      <point x="208" y="-41"/>
      <point x="198" y="-66"/>
      <point x="198" y="-88" type="curve" smooth="yes"/>
      <point x="198" y="-109"/>
      <point x="212" y="-122"/>
      <point x="237" y="-122" type="curve" smooth="yes"/>
      <point x="257" y="-122"/>
      <point x="275" y="-120"/>
      <point x="303" y="-111" type="curve"/>
    </contour>
  </outline>
</glyph>
<glyph name="quoteright" format="1">
  <advance width="238"/>
  <unicode hex="2019"/>
  <unicode hex="02BC"/>
  <outline>
    <contour>
      <point x="223" y="720" type="line"/>
      <point x="107" y="429" type="line"/>
      <point x="24" y="429" type="line"/>
      <point x="46" y="720" type="line"/>
    </contour>
  </outline>
</glyph>
<glyph name="quotedblleft" format="1">
  <advance width="440"/>
  <unicode hex="201C"/>
  <outline>
    <contour>
      <point x="416" y="429" type="line"/>
      <point x="338" y="429" type="line"/>
      <point x="222" y="720" type="line"/>
      <point x="394" y="720" type="line"/>
    </contour>
    <contour>
      <point x="209" y="429" type="line"/>
      <point x="131" y="429" type="line"/>
      <point x="15" y="720" type="line"/>
      <point x="187" y="720" type="line"/>
    </contour>
  </outline>
</glyph>
<glyph name="dagger" format="1">
  <advance width="415"/>
  <unicode hex="2020"/>
  <outline>
    <contour>
      <point x="399" y="419" type="line"/>
      <point x="254" y="465" type="line"/>
      <point x="293" y="337" type="line"/>
      <point x="236" y="0" type="line"/>
      <point x="179" y="0" type="line"/>
      <point x="122" y="337" type="line"/>
      <point x="161" y="465" type="line"/>
      <point x="16" y="419" type="line"/>
      <point x="16" y="570" type="line"/>
      <point x="161" y="523" type="line"/>
      <point x="122" y="720" type="line"/>
      <point x="293" y="720" type="line"/>
      <point x="254" y="523" type="line"/>
      <point x="399" y="570" type="line"/>
    </contour>
  </outline>
</glyph>
<glyph name="ellipsis" format="1">
  <advance width="686"/>
  <unicode hex="2026"/>
  <outline>
    <contour>
      <point x="661" y="83" type="curve" smooth="yes"/>
      <point x="661" y="32"/>
      <point x="622" y="-7"/>
      <point x="571" y="-7" type="curve" smooth="yes"/>
      <point x="520" y="-7"/>
      <point x="481" y="32"/>
      <point x="481" y="83" type="curve" smooth="yes"/>
      <point x="481" y="134"/>
      <point x="520" y="173"/>
      <point x="571" y="173" type="curve" smooth="yes"/>
      <point x="622" y="173"/>
      <point x="661" y="134"/>
    </contour>
    <contour>
      <point x="433" y="83" type="curve" smooth="yes"/>
      <point x="433" y="32"/>
      <point x="394" y="-7"/>
      <point x="343" y="-7" type="curve" smooth="yes"/>
      <point x="292" y="-7"/>
      <point x="253" y="32"/>
      <point x="253" y="83" type="curve" smooth="yes"/>
      <point x="253" y="134"/>
      <point x="292" y="173"/>
      <point x="343" y="173" type="curve" smooth="yes"/>
      <point x="394" y="173"/>
      <point x="433" y="134"/>
    </contour>
    <contour>
      <point x="205" y="83" type="curve" smooth="yes"/>
      <point x="205" y="32"/>
      <point x="166" y="-7"/>
      <point x="115" y="-7" type="curve" smooth="yes"/>
      <point x="64" y="-7"/>
      <point x="25" y="32"/>
      <point x="25" y="83" type="curve" smooth="yes"/>
      <point x="25" y="134"/>
      <point x="64" y="173"/>
      <point x="115" y="173" type="curve" smooth="yes"/>
      <point x="166" y="173"/>
      <point x="205" y="134"/>
    </contour>
  </outline>
</glyph>
<glyph name="Euro" format="1">
  <advance width="490"/>
  <unicode hex="20AC"/>
  <outline>
    <contour>
      <point x="483" y="133" type="line"/>
      <point x="453" y="51"/>
      <point x="403" y="-12"/>
      <point x="257" y="-12" type="curve" smooth="yes"/>
      <point x="115" y="-12"/>
      <point x="17" y="72"/>
      <point x="17" y="325" type="curve" smooth="yes"/>
      <point x="17" y="395" type="line" smooth="yes"/>
      <point x="17" y="646"/>
      <point x="116" y="732"/>
      <point x="259" y="732" type="curve" smooth="yes"/>
      <point x="405" y="732"/>
      <point x="452" y="666"/>
      <point x="481" y="587" type="curve"/>
      <point x="345" y="511" type="line"/>
      <point x="325" y="562"/>
      <point x="306" y="588"/>
      <point x="267" y="588" type="curve" smooth="yes"/>
      <point x="224" y="588"/>
      <point x="203" y="543"/>
      <point x="203" y="465" type="curve"/>
      <point x="376" y="465" type="line"/>
      <point x="376" y="373" type="line"/>
      <point x="201" y="373" type="line"/>
      <point x="201" y="337" type="line"/>
      <point x="376" y="337" type="line"/>
      <point x="376" y="245" type="line"/>
      <point x="204" y="245" type="line"/>
      <point x="204" y="172"/>
      <point x="222" y="132"/>
      <point x="274" y="132" type="curve" smooth="yes"/>
      <point x="306" y="132"/>
      <point x="327" y="158"/>
      <point x="347" y="209" type="curve"/>
    </contour>
  </outline>
</glyph>
<glyph name="minus" format="1">
  <advance width="479"/>
  <unicode hex="2212"/>
  <outline>
    <contour>
      <point x="457" y="278" type="line"/>
      <point x="22" y="278" type="line"/>
      <point x="22" y="429" type="line"/>
      <point x="457" y="429" type="line"/>
    </contour>
  </outline>
</glyph>
<glyph name="fi" format="1">
  <advance width="573"/>
  <unicode hex="FB01"/>
  <outline>
    <contour>
      <point x="548" y="588" type="line"/>
      <point x="360" y="588" type="line"/>
      <point x="360" y="720" type="line"/>
      <point x="548" y="720" type="line"/>
    </contour>
    <contour>
      <point x="547" y="0" type="line"/>
      <point x="361" y="0" type="line"/>
      <point x="361" y="542" type="line"/>
      <point x="547" y="542" type="line"/>
    </contour>
    <contour>
      <point x="333" y="634" type="line"/>
      <point x="322" y="637"/>
      <point x="312" y="638"/>
      <point x="298" y="638" type="curve" smooth="yes"/>
      <point x="265" y="638"/>
      <point x="247" y="622"/>
      <point x="247" y="581" type="curve" smooth="yes"/>
      <point x="247" y="540" type="line"/>
      <point x="331" y="540" type="line"/>
      <point x="331" y="419" type="line"/>
      <point x="247" y="419" type="line"/>
      <point x="247" y="0" type="line"/>
      <point x="66" y="0" type="line"/>
      <point x="66" y="419" type="line"/>
      <point x="2" y="419" type="line"/>
      <point x="2" y="540" type="line"/>
      <point x="66" y="540" type="line"/>
      <point x="66" y="597" type="line" smooth="yes"/>
      <point x="66" y="703"/>
      <point x="124" y="759"/>
      <point x="236" y="759" type="curve" smooth="yes"/>
      <point x="282" y="759"/>
      <point x="307" y="757"/>
      <point x="333" y="751" type="curve"/>
    </contour>
  </outline>
</glyph>
<glyph name="fl" format="1">
  <advance width="573"/>
  <unicode hex="FB02"/>
  <outline>
    <contour>
      <point x="547" y="0" type="line"/>
      <point x="361" y="0" type="line"/>
      <point x="361" y="730" type="line"/>
      <point x="547" y="754" type="line"/>
    </contour>
    <contour>
      <point x="333" y="634" type="line"/>
      <point x="322" y="637"/>
      <point x="312" y="638"/>
      <point x="298" y="638" type="curve" smooth="yes"/>
      <point x="265" y="638"/>
      <point x="247" y="622"/>
      <point x="247" y="581" type="curve" smooth="yes"/>
      <point x="247" y="540" type="line"/>
      <point x="331" y="540" type="line"/>
      <point x="331" y="419" type="line"/>
      <point x="247" y="419" type="line"/>
      <point x="247" y="0" type="line"/>
      <point x="66" y="0" type="line"/>
      <point x="66" y="419" type="line"/>
      <point x="2" y="419" type="line"/>
      <point x="2" y="540" type="line"/>
      <point x="66" y="540" type="line"/>
      <point x="66" y="597" type="line" smooth="yes"/>
      <point x="66" y="703"/>
      <point x="124" y="759"/>
      <point x="236" y="759" type="curve" smooth="yes"/>
      <point x="282" y="759"/>
      <point x="307" y="757"/>
      <point x="333" y="751" type="curve"/>
    </contour>
  </outline>
</glyph>
<glyph name="I.salt" format="1">
  <advance width="256"/>
  <outline>
    <contour>
      <point x="226" y="0" type="line"/>
      <point x="30" y="0" type="line"/>
      <point x="30" y="720" type="line"/>
      <point x="226" y="720" type="line"/>
    </contour>
  </outline>
</glyph>
<glyph name="registered.big" format="1">
  <advance width="652"/>
  <outline>
    <contour>
      <point x="629" y="361" type="curve" smooth="yes"/>
      <point x="629" y="149"/>
      <point x="500" y="-12"/>
      <point x="325" y="-12" type="curve" smooth="yes"/>
      <point x="151" y="-12"/>
      <point x="23" y="145"/>
      <point x="23" y="359" type="curve" smooth="yes"/>
      <point x="23" y="573"/>
      <point x="152" y="732"/>
      <point x="327" y="732" type="curve" smooth="yes"/>
      <point x="501" y="732"/>
      <point x="629" y="573"/>
    </contour>
    <contour>
      <point x="589" y="359" type="curve" smooth="yes"/>
      <point x="589" y="545"/>
      <point x="485" y="694"/>
      <point x="325" y="694" type="curve" smooth="yes"/>
      <point x="166" y="694"/>
      <point x="63" y="547"/>
      <point x="63" y="361" type="curve" smooth="yes"/>
      <point x="63" y="175"/>
      <point x="167" y="26"/>
      <point x="327" y="26" type="curve" smooth="yes"/>
      <point x="486" y="26"/>
      <point x="589" y="173"/>
    </contour>
    <contour>
      <point x="482" y="153" type="line"/>
      <point x="365" y="153" type="line"/>
      <point x="320" y="309" type="line"/>
      <point x="312" y="309" type="line"/>
      <point x="312" y="153" type="line"/>
      <point x="198" y="153" type="line"/>
      <point x="198" y="585" type="line"/>
      <point x="326" y="585" type="line" smooth="yes"/>
      <point x="411" y="585"/>
      <point x="469" y="544"/>
      <point x="469" y="453" type="curve" smooth="yes"/>
      <point x="469" y="402"/>
      <point x="451" y="365"/>
      <point x="420" y="341" type="curve"/>
    </contour>
    <contour>
      <point x="357" y="446" type="curve" smooth="yes"/>
      <point x="357" y="481"/>
      <point x="344" y="500"/>
      <point x="318" y="500" type="curve" smooth="yes"/>
      <point x="312" y="500" type="line"/>
      <point x="312" y="388" type="line"/>
      <point x="318" y="388" type="line" smooth="yes"/>
      <point x="345" y="388"/>
      <point x="357" y="411"/>
    </contour>
  </outline>
</glyph>
